<svg xmlns="http://www.w3.org/2000/svg" aria-hidden="true" style="position:absolute;width:0;height:0;overflow:hidden">
  <defs>
    <!-- Logo -->
    <symbol id="logo" viewBox="0 0 29 32">
      <path fill="#fcf1e0" style="fill: var(--color1, #fcf1e0)" d="M2.611 20.076l10.777-17.424 0.64-0.674 8.236 5.491 0.056 3.314 2.010 3.28-8.88 14.077-12.839-8.063z"></path>
      <path fill="none" stroke="#fd9222" style="stroke: var(--color2, #fd9222)" stroke-linejoin="round" stroke-linecap="round" stroke-miterlimit="4" stroke-width="2.6667" d="M20.301 23.88l-14.185-8.864M10.028 8.599l14.185 8.864M9.297 25.864l11.736-19.25M25.843 14.789c-3.040-1.899-4.234-3.384-2.278-6.592l-9.626-6.015-11.736 19.25 14.186 8.864 9.454-15.507z"></path>
    </symbol>

    <!-- Instagram -->
    <symbol id="instagram" viewBox="0 0 32 32">
      <path d="M8.727 2.909c-3.213 0-5.818 2.605-5.818 5.818v14.545c0 3.213 2.605 5.818 5.818 5.818h14.545c3.213 0 5.818-2.605 5.818-5.818v-14.545c0-3.213-2.605-5.818-5.818-5.818h-14.545zM0 8.727c0-4.82 3.907-8.727 8.727-8.727h14.545c4.82 0 8.727 3.907 8.727 8.727v14.545c0 4.82-3.907 8.727-8.727 8.727h-14.545c-4.82 0-8.727-3.907-8.727-8.727v-14.545z"></path>
      <path d="M16.703 11.621c-0.908-0.135-1.835 0.020-2.65 0.443s-1.475 1.092-1.888 1.911c-0.413 0.82-0.556 1.749-0.41 2.655s0.574 1.743 1.223 2.392c0.649 0.649 1.486 1.077 2.392 1.223s1.835 0.002 2.655-0.41c0.82-0.413 1.489-1.073 1.911-1.888s0.578-1.742 0.443-2.65c-0.137-0.926-0.569-1.783-1.231-2.445s-1.519-1.094-2.445-1.231zM12.713 9.482c1.358-0.705 2.903-0.963 4.416-0.739 1.544 0.229 2.973 0.948 4.076 2.051s1.823 2.532 2.051 4.076c0.224 1.513-0.034 3.058-0.739 4.416s-1.819 2.459-3.186 3.147c-1.366 0.688-2.915 0.927-4.425 0.684s-2.906-0.956-3.987-2.038c-1.082-1.082-1.795-2.477-2.038-3.987s-0.004-3.059 0.684-4.425 1.789-2.481 3.147-3.186z"></path>
      <path d="M22.545 8c0-0.803 0.651-1.455 1.455-1.455h0.015c0.803 0 1.455 0.651 1.455 1.455s-0.651 1.455-1.455 1.455h-0.015c-0.803 0-1.455-0.651-1.455-1.455z"></path>
    </symbol>

    <!-- Twitter -->
    <symbol id="twitter" viewBox="0 0 37 32">
      <path d="M22.134 2.058c1.598-0.61 3.345-0.714 5.005-0.299 1.32 0.33 2.533 0.976 3.54 1.876 1.238-0.455 2.411-1.071 3.491-1.832 0.519-0.366 1.211-0.372 1.736-0.014s0.773 1.003 0.623 1.62c-0.522 2.143-1.568 4.119-3.040 5.751 0.023 0.246 0.034 0.493 0.035 0.74v0.005c0 9.295-4.475 16.114-10.903 19.536-6.391 3.401-14.559 3.364-21.837-0.68-0.617-0.343-0.918-1.064-0.727-1.744s0.823-1.139 1.528-1.111c2.57 0.102 5.115-0.409 7.429-1.475-2.29-1.413-3.94-3.091-5.086-4.902-1.529-2.415-2.107-4.973-2.211-7.27-0.104-2.29 0.26-4.353 0.642-5.832 0.192-0.743 0.392-1.348 0.545-1.773 0.077-0.213 0.143-0.381 0.191-0.5 0.024-0.059 0.044-0.106 0.058-0.14l0.018-0.041 0.005-0.010c0.011-0.025 0.022-0.049 0.034-0.073l1.363 0.681 1.247-0.876c1.395 1.987 3.26 3.597 5.428 4.689 1.725 0.868 3.599 1.386 5.515 1.53-0.011-1.691 0.491-3.346 1.441-4.746 0.961-1.415 2.333-2.501 3.931-3.111zM5.188 7.686c-0.28 1.221-0.503 2.77-0.428 4.436 0.086 1.893 0.556 3.907 1.741 5.778 1.179 1.861 3.123 3.674 6.308 5.090 0.506 0.225 0.85 0.706 0.899 1.257s-0.204 1.086-0.662 1.396c-1.693 1.149-3.547 2.014-5.488 2.573 4.831 1.231 9.671 0.643 13.631-1.464 5.381-2.864 9.287-8.615 9.287-16.843-0.001-0.329-0.033-0.658-0.095-0.981-0.096-0.5 0.065-1.014 0.427-1.371 0.34-0.335 0.654-0.692 0.942-1.067-0.345 0.127-0.694 0.244-1.047 0.351-0.574 0.173-1.196-0.007-1.589-0.459-0.713-0.82-1.66-1.401-2.714-1.664s-2.163-0.197-3.178 0.19c-1.015 0.387-1.886 1.077-2.496 1.976s-0.93 1.963-0.915 3.049l0 0.020h-0v1.524c0 0.826-0.658 1.502-1.484 1.523-2.929 0.076-5.831-0.574-8.449-1.891-1.746-0.879-3.328-2.036-4.688-3.421z"></path>
    </symbol>

    <!-- Burger -->
    <symbol id="burger" viewBox="0 0 45 32">
      <path d="M1.2 3.2c0-1.105 0.895-2 2-2h38.4c1.105 0 2 0.895 2 2s-0.895 2-2 2h-38.4c-1.105 0-2-0.895-2-2zM1.2 16c0-1.105 0.895-2 2-2h38.4c1.105 0 2 0.895 2 2s-0.895 2-2 2h-38.4c-1.105 0-2-0.895-2-2zM1.2 28.8c0-1.105 0.895-2 2-2h38.4c1.105 0 2 0.895 2 2s-0.895 2-2 2h-38.4c-1.105 0-2-0.895-2-2z"></path>
    </symbol>

    <!-- Spoon -->
    <symbol id="spoon" viewBox="0 0 32 32">
      <path fill="#fd9222" style="fill: var(--color1, #fd9222)" d="M15.452 14.106c-0.783-0.95-1.177-2.116-1.177-3.282 0-4.324 5.181-8.642 10.362-8.642 2.86 0 5.181 2.321 5.181 5.182 0 5.182-4.318 10.364-8.646 10.364-1.166 0-2.332-0.394-3.281-1.177l-12.758 12.761c-0.675 0.675-1.77 0.675-2.445 0s-0.675-1.771 0-2.445l12.764-12.761z"></path>
    </symbol>

    <!-- Dollar -->
    <symbol id="dollar" viewBox="0 0 32 32">
      <path fill="#fd9222" style="fill: var(--color1, #fd9222)" d="M16 0.762c-8.381 0-15.238 6.857-15.238 15.238s6.857 15.238 15.238 15.238c8.381 0 15.238-6.857 15.238-15.238s-6.857-15.238-15.238-15.238zM16 28.191c-6.705 0-12.191-5.486-12.191-12.19s5.486-12.191 12.191-12.191c6.705 0 12.19 5.486 12.19 12.191s-5.486 12.19-12.19 12.19z"></path>
      <path fill="#fd9222" style="fill: var(--color1, #fd9222)" d="M17.981 14.476h-3.962c-0.762 0-1.371-0.61-1.371-1.371s0.61-1.371 1.371-1.371h5.638c0.914 0 1.524-0.61 1.524-1.524s-0.61-1.524-1.524-1.524h-2.133v-1.371c0-0.914-0.61-1.524-1.524-1.524s-1.524 0.61-1.524 1.524v1.371h-0.457c-2.438 0-4.419 1.981-4.419 4.419s1.981 4.419 4.419 4.419h3.809c0.762 0 1.371 0.61 1.371 1.371s-0.61 1.371-1.371 1.371h-5.638c-0.914 0-1.524 0.61-1.524 1.524s0.61 1.524 1.524 1.524h2.286v1.371c0 0.914 0.61 1.524 1.524 1.524s1.524-0.61 1.524-1.524v-1.371h0.457c2.438 0 4.419-1.981 4.419-4.419s-1.981-4.419-4.419-4.419z"></path>
    </symbol>

    <!-- Chocolate -->
    <symbol id="chocolate" viewBox="0 0 31 32">
      <path fill="#000" style="fill: var(--color1, #000)" d="M13.045 0.456l8.306 8.316 0.088-0.088c0.174-0.17 0.407-0.267 0.65-0.27s0.478 0.089 0.656 0.255l0.963 0.963c0.337 0.337 0.348 0.85 0.092 1.207l-0.004 0.008-0.158 0.212 6.797 6.797c0.607 0.607 0.607 1.578 0 2.185l-10.406 10.406c-0.607 0.607-1.578 0.607-2.185 0l-4.907-4.907c-0.081 0.103-0.184 0.187-0.3 0.247s-0.244 0.095-0.375 0.103c-0.131 0.007-0.262-0.013-0.384-0.060s-0.234-0.119-0.326-0.212l-2.869-2.869c-0.17-0.174-0.267-0.407-0.27-0.65s0.089-0.478 0.255-0.656l0.007-0.008 0.085-0.084-8.306-8.306c-0.607-0.607-0.607-1.578 0-2.185l10.405-10.405c0.607-0.607 1.578-0.607 2.185 0v0.001zM20.308 9.813l-1.938-1.937c-0.061-0.063-0.134-0.113-0.214-0.147s-0.167-0.052-0.255-0.052c-0.087 0-0.174 0.018-0.255 0.052s-0.154 0.084-0.214 0.147l-3.95 3.95c-0.063 0.062-0.112 0.136-0.146 0.217s-0.051 0.169-0.051 0.257 0.017 0.176 0.051 0.257c0.034 0.081 0.084 0.155 0.146 0.217l1.93 1.93 0.673-0.673-1.727-1.727 3.542-3.553 1.731 1.737 0.676-0.676zM14.707 15.41l-1.935-1.935c-0.061-0.063-0.134-0.113-0.214-0.147s-0.167-0.052-0.255-0.052c-0.088 0-0.174 0.018-0.255 0.052s-0.153 0.084-0.214 0.147l-3.961 3.961c-0.265 0.254-0.265 0.673 0 0.938l1.933 1.933 0.68-0.68-1.732-1.726 3.553-3.542 1.726 1.725 0.675-0.674zM7.528 6.834l3.95 3.95c0.265 0.265 0.684 0.265 0.938-0.011l3.95-3.95c0.063-0.060 0.113-0.132 0.147-0.211s0.052-0.165 0.052-0.252h0.011c0-0.166-0.066-0.342-0.199-0.474l-3.95-3.95c-0.062-0.063-0.136-0.113-0.217-0.147s-0.169-0.051-0.257-0.051c-0.088 0-0.176 0.018-0.257 0.051s-0.155 0.084-0.217 0.147l-3.95 3.961c-0.265 0.254-0.265 0.673 0 0.938zM1.933 12.428l3.95 3.95c0.265 0.265 0.684 0.265 0.938 0l3.95-3.95c0.064-0.061 0.115-0.135 0.149-0.216s0.051-0.17 0.050-0.258h0.011c0-0.177-0.066-0.342-0.199-0.474l-3.95-3.95c-0.061-0.063-0.134-0.113-0.214-0.147s-0.167-0.052-0.255-0.052c-0.087 0-0.174 0.018-0.255 0.052s-0.153 0.084-0.214 0.147l-3.961 3.961c-0.265 0.254-0.265 0.673 0 0.938zM9.583 22.088l2.606 2.607 10.633-14.389-0.723-0.723-12.516 12.504z"></path>
      <path fill="#fd9222" style="fill: var(--color2, #fd9222)" d="M13.045 0.456l8.306 8.316 0.088-0.088c0.174-0.17 0.407-0.267 0.65-0.27s0.478 0.089 0.656 0.255l0.963 0.963c0.337 0.337 0.348 0.85 0.092 1.207l-0.004 0.008-0.158 0.212 6.797 6.797c0.607 0.607 0.607 1.578 0 2.185l-10.406 10.406c-0.607 0.607-1.578 0.607-2.185 0l-4.907-4.907c-0.081 0.103-0.184 0.187-0.3 0.247s-0.244 0.095-0.375 0.103c-0.131 0.007-0.262-0.013-0.384-0.060s-0.234-0.119-0.326-0.212l-2.869-2.869c-0.17-0.174-0.267-0.407-0.27-0.65s0.089-0.478 0.255-0.656l0.007-0.008 0.085-0.084-8.306-8.306c-0.607-0.607-0.607-1.578 0-2.185l10.405-10.405c0.607-0.607 1.578-0.607 2.185 0v0.001zM20.308 9.813l-1.938-1.937c-0.061-0.063-0.134-0.113-0.214-0.147s-0.167-0.052-0.255-0.052c-0.087 0-0.174 0.018-0.255 0.052s-0.154 0.084-0.214 0.147l-3.95 3.95c-0.063 0.062-0.112 0.136-0.146 0.217s-0.051 0.169-0.051 0.257 0.017 0.176 0.051 0.257c0.034 0.081 0.084 0.155 0.146 0.217l1.93 1.93 0.673-0.673-1.727-1.727 3.542-3.553 1.731 1.737 0.676-0.676zM14.707 15.41l-1.935-1.935c-0.061-0.063-0.134-0.113-0.214-0.147s-0.167-0.052-0.255-0.052c-0.088 0-0.174 0.018-0.255 0.052s-0.153 0.084-0.214 0.147l-3.961 3.961c-0.265 0.254-0.265 0.673 0 0.938l1.933 1.933 0.68-0.68-1.732-1.726 3.553-3.542 1.726 1.725 0.675-0.674zM7.528 6.834l3.95 3.95c0.265 0.265 0.684 0.265 0.938-0.011l3.95-3.95c0.063-0.060 0.113-0.132 0.147-0.211s0.052-0.165 0.052-0.252h0.011c0-0.166-0.066-0.342-0.199-0.474l-3.95-3.95c-0.062-0.063-0.136-0.113-0.217-0.147s-0.169-0.051-0.257-0.051c-0.088 0-0.176 0.018-0.257 0.051s-0.155 0.084-0.217 0.147l-3.95 3.961c-0.265 0.254-0.265 0.673 0 0.938zM1.933 12.428l3.95 3.95c0.265 0.265 0.684 0.265 0.938 0l3.95-3.95c0.064-0.061 0.115-0.135 0.149-0.216s0.051-0.17 0.050-0.258h0.011c0-0.177-0.066-0.342-0.199-0.474l-3.95-3.95c-0.061-0.063-0.134-0.113-0.214-0.147s-0.167-0.052-0.255-0.052c-0.087 0-0.174 0.018-0.255 0.052s-0.153 0.084-0.214 0.147l-3.961 3.961c-0.265 0.254-0.265 0.673 0 0.938zM9.583 22.088l2.606 2.607 10.633-14.389-0.723-0.723-12.516 12.504z"></path>
    </symbol>

    <!-- Play -->
    <symbol id="icon-play" viewBox="0 0 32 32">
      <path fill="#f5f4f4" style="fill: var(--color1, #f5f4f4)" d="M10.909 24v-15.273l14.545 7.636-14.545 7.636z"></path>
      <path fill="none" stroke="#fff" style="stroke: var(--color2, #fff)" stroke-linejoin="miter" stroke-linecap="butt" stroke-miterlimit="4" stroke-width="0.7273" d="M31.636 16c0 8.636-7.001 15.636-15.636 15.636s-15.636-7.001-15.636-15.636c0-8.636 7.001-15.636 15.636-15.636s15.636 7.001 15.636 15.636z"></path>
    </symbol>

    <!-- Modal-close -->
    <symbol id="icon-close" viewBox="0 0 8 8">
      <path d="M8 0.805714L7.19429 0L4 3.19429L0.805714 0L0 0.805714L3.19429 4L0 7.19429L0.805714 8L4 4.80571L7.19429 8L8 7.19429L4.80571 4L8 0.805714Z"/>
    </symbol>
    <symbol id="close" viewBox="0 0 32 32">
      <path stroke-linejoin="round" stroke-linecap="round" stroke-miterlimit="4" stroke-width="4.5714" d="M29.714 2.286l-27.429 27.429"></path>
      <path stroke-linejoin="round" stroke-linecap="round" stroke-miterlimit="4" stroke-width="4.5714" d="M2.286 2.286l27.429 27.429"></path>
    </symbol>

    <!-- Card -->
    <symbol id="card" viewBox="0 0 50 32">
      <path fill="#ed0006" style="fill: var(--color1, #ed0006)" d="M25.143 28.078c-2.656 2.194-6.102 3.518-9.867 3.518-8.401 0-15.211-6.593-15.211-14.726s6.81-14.726 15.211-14.726c3.765 0 7.21 1.324 9.867 3.518 2.656-2.194 6.102-3.518 9.866-3.518 8.401 0 15.211 6.593 15.211 14.726s-6.81 14.726-15.211 14.726c-3.765 0-7.21-1.324-9.867-3.518z"></path>
      <path fill="#f9a000" style="fill: var(--color2, #f9a000)" d="M25.143 28.078c3.271-2.701 5.344-6.72 5.344-11.208s-2.074-8.507-5.344-11.208c2.656-2.194 6.102-3.518 9.866-3.518 8.401 0 15.211 6.593 15.211 14.726s-6.81 14.726-15.211 14.726c-3.765 0-7.21-1.324-9.867-3.518z"></path>
      <path fill="#ff5e00" style="fill: var(--color3, #ff5e00)" d="M25.143 28.078c3.271-2.701 5.344-6.72 5.344-11.208s-2.074-8.507-5.344-11.208c-3.271 2.701-5.344 6.72-5.344 11.208s2.074 8.507 5.344 11.208z"></path>
    </symbol>

    <!-- Flag -->
    <symbol id="flag" viewBox="0 0 43 32">
      <path fill="#ffd700" style="fill: var(--color4, #ffd700)" d="M42.443 0.523h-42.119v31.344h42.119v-31.344z"></path>
      <path fill="#0057b7" style="fill: var(--color5, #0057b7)" d="M0.324 0.523h42.119v15.672h-42.119v-15.672z"></path>
    </symbol>

    <!-- Scroll -->
    <symbol id="icon-scroll" viewBox="0 0 56 32">
      <path d="M30.603 21.134c-0.341 0.344-0.746 0.616-1.193 0.803s-0.926 0.282-1.41 0.282c-0.484 0-0.963-0.096-1.41-0.282s-0.852-0.459-1.193-0.803l-16.793-16.83c-0.341-0.344-0.746-0.616-1.193-0.803s-0.926-0.282-1.41-0.282-0.963 0.096-1.41 0.282c-0.447 0.186-0.852 0.459-1.193 0.803-0.683 0.687-1.066 1.616-1.066 2.585s0.383 1.898 1.066 2.585l16.83 16.83c2.062 2.060 4.858 3.217 7.773 3.217s5.711-1.157 7.773-3.217l16.83-16.83c0.677-0.683 1.059-1.605 1.063-2.567 0.003-0.483-0.090-0.961-0.272-1.408s-0.452-0.853-0.791-1.196c-0.341-0.344-0.746-0.616-1.193-0.803s-0.926-0.282-1.41-0.282c-0.484 0-0.963 0.096-1.41 0.282s-0.852 0.459-1.193 0.803l-16.793 16.83z"></path>
    </symbol>

  </defs>
</svg>