<svg xmlns="http://www.w3.org/2000/svg" aria-hidden="true" style="width:0;height:0;position:absolute;overflow:hidden"><defs><symbol id="logo" viewBox="0 0 29 32"><path fill="#fcf1e0" style="fill:var(--color1,#fcf1e0)" d="M2.611 20.076 13.388 2.652l.64-.674 8.236 5.491.056 3.314 2.01 3.28-8.88 14.077-12.839-8.063z"/><path fill="none" stroke="#fd9222" style="stroke:var(--color2,#fd9222)" stroke-linejoin="round" stroke-linecap="round" stroke-width="2.667" d="M20.301 23.88 6.116 15.016m3.912-6.417 14.185 8.864M9.297 25.864l11.736-19.25m4.81 8.175c-3.04-1.899-4.234-3.384-2.278-6.592l-9.626-6.015-11.736 19.25 14.186 8.864 9.454-15.507z"/></symbol><symbol id="instagram" viewBox="0 0 32 32"><path d="M8.727 2.909a5.818 5.818 0 0 0-5.818 5.818v14.545a5.818 5.818 0 0 0 5.818 5.818h14.545a5.818 5.818 0 0 0 5.818-5.818V8.727a5.818 5.818 0 0 0-5.818-5.818H8.727zM0 8.727A8.727 8.727 0 0 1 8.727 0h14.545a8.727 8.727 0 0 1 8.727 8.727v14.545a8.727 8.727 0 0 1-8.727 8.727H8.727A8.727 8.727 0 0 1 0 23.272V8.727z"/><path d="M16.703 11.621a4.36 4.36 0 0 0-4.538 2.354 4.36 4.36 0 0 0 .813 5.047 4.365 4.365 0 0 0 6.958-1.075 4.367 4.367 0 0 0-.788-5.095 4.36 4.36 0 0 0-2.445-1.231zm-3.99-2.139a7.272 7.272 0 1 1-1.794 11.597 7.272 7.272 0 0 1 1.793-11.598zM22.545 8c0-.803.651-1.455 1.455-1.455h.015a1.455 1.455 0 0 1 0 2.91H24A1.455 1.455 0 0 1 22.545 8z"/></symbol><symbol id="twitter" viewBox="0 0 37 32"><path d="M22.134 2.058a8.353 8.353 0 0 1 8.545 1.577 15.11 15.11 0 0 0 3.491-1.832 1.523 1.523 0 0 1 2.359 1.606 13.279 13.279 0 0 1-3.04 5.751c.023.246.034.493.035.74v.005c0 9.295-4.475 16.114-10.903 19.536-6.391 3.401-14.559 3.364-21.837-.68a1.523 1.523 0 0 1 .801-2.855 16.22 16.22 0 0 0 7.429-1.475c-2.29-1.413-3.94-3.091-5.086-4.902-1.529-2.415-2.107-4.973-2.211-7.27-.104-2.29.26-4.353.642-5.832.192-.743.392-1.348.545-1.773.077-.213.143-.381.191-.5l.058-.14.018-.041.005-.01.034-.073 1.363.681 1.247-.876a14.724 14.724 0 0 0 10.943 6.219 8.355 8.355 0 0 1 5.372-7.857zM5.188 7.686c-.28 1.221-.503 2.77-.428 4.436.086 1.893.556 3.907 1.741 5.778 1.179 1.861 3.123 3.674 6.308 5.09a1.523 1.523 0 0 1 .237 2.653 19.27 19.27 0 0 1-5.488 2.573c4.831 1.231 9.671.643 13.631-1.464 5.381-2.864 9.287-8.615 9.287-16.843a5.294 5.294 0 0 0-.095-.981c-.096-.5.065-1.014.427-1.371.34-.335.654-.692.942-1.067-.345.127-.694.244-1.047.351a1.523 1.523 0 0 1-1.589-.459c-.713-.82-1.66-1.401-2.714-1.664s-2.163-.197-3.178.19a5.297 5.297 0 0 0-3.411 5.025v1.544c0 .826-.658 1.502-1.484 1.523A17.774 17.774 0 0 1 5.19 7.688z"/></symbol><symbol id="burger" viewBox="0 0 45 32"><path d="M1.2 3.2a2 2 0 0 1 2-2h38.4a2 2 0 1 1 0 4H3.2a2 2 0 0 1-2-2zm0 12.8a2 2 0 0 1 2-2h38.4a2 2 0 1 1 0 4H3.2a2 2 0 0 1-2-2zm0 12.8a2 2 0 0 1 2-2h38.4a2 2 0 1 1 0 4H3.2a2 2 0 0 1-2-2z"/></symbol><symbol id="spoon" viewBox="0 0 32 32"><path fill="#fd9222" style="fill:var(--color1,#fd9222)" d="M15.452 14.106a5.154 5.154 0 0 1-1.177-3.282c0-4.324 5.181-8.642 10.362-8.642a5.183 5.183 0 0 1 5.181 5.182c0 5.182-4.318 10.364-8.646 10.364a5.15 5.15 0 0 1-3.281-1.177L5.133 29.312a1.73 1.73 0 0 1-2.445-2.445l12.764-12.761z"/></symbol><symbol id="dollar" viewBox="0 0 32 32"><path fill="#fd9222" style="fill:var(--color1,#fd9222)" d="M16 .762C7.619.762.762 7.619.762 16S7.619 31.238 16 31.238 31.238 24.381 31.238 16 24.381.762 16 .762zm0 27.429c-6.705 0-12.191-5.486-12.191-12.19S9.295 3.81 16 3.81c6.705 0 12.19 5.486 12.19 12.191S22.704 28.191 16 28.191z"/><path fill="#fd9222" style="fill:var(--color1,#fd9222)" d="M17.981 14.476h-3.962c-.762 0-1.371-.61-1.371-1.371s.61-1.371 1.371-1.371h5.638c.914 0 1.524-.61 1.524-1.524s-.61-1.524-1.524-1.524h-2.133V7.315c0-.914-.61-1.524-1.524-1.524s-1.524.61-1.524 1.524v1.371h-.457c-2.438 0-4.419 1.981-4.419 4.419s1.981 4.419 4.419 4.419h3.809c.762 0 1.371.61 1.371 1.371s-.61 1.371-1.371 1.371H12.19c-.914 0-1.524.61-1.524 1.524s.61 1.524 1.524 1.524h2.286v1.371c0 .914.61 1.524 1.524 1.524s1.524-.61 1.524-1.524v-1.371h.457c2.438 0 4.419-1.981 4.419-4.419s-1.981-4.419-4.419-4.419z"/></symbol><symbol id="chocolate" viewBox="0 0 31 32"><path style="fill:var(--color1,#000)" d="m13.045.456 8.306 8.316.088-.088a.948.948 0 0 1 1.306-.015l.963.963c.337.337.348.85.092 1.207l-.004.008-.158.212 6.797 6.797a1.539 1.539 0 0 1 0 2.185L20.029 30.447a1.539 1.539 0 0 1-2.185 0l-4.907-4.907a.918.918 0 0 1-.675.35.93.93 0 0 1-.71-.272l-2.869-2.869a.948.948 0 0 1-.015-1.306l.007-.008.085-.084-8.306-8.306a1.539 1.539 0 0 1 0-2.185L10.859.455a1.539 1.539 0 0 1 2.185 0v.001zm7.263 9.357L18.37 7.876a.655.655 0 0 0-.938 0l-3.95 3.95a.664.664 0 0 0-.146.731.68.68 0 0 0 .146.217l1.93 1.93.673-.673-1.727-1.727L17.9 8.751l1.731 1.737.676-.676zm-5.601 5.597-1.935-1.935a.655.655 0 0 0-.938 0l-3.961 3.961a.653.653 0 0 0 0 .938l1.933 1.933.68-.68-1.732-1.726 3.553-3.542 1.726 1.725.675-.674zM7.528 6.834l3.95 3.95a.644.644 0 0 0 .938-.011l3.95-3.95a.643.643 0 0 0 .199-.463h.011a.674.674 0 0 0-.199-.474l-3.95-3.95a.667.667 0 0 0-.948 0l-3.95 3.961a.653.653 0 0 0 0 .938zm-5.595 5.594 3.95 3.95a.653.653 0 0 0 .938 0l3.95-3.95a.643.643 0 0 0 .199-.474h.011a.655.655 0 0 0-.199-.474l-3.95-3.95a.655.655 0 0 0-.938 0l-3.961 3.961a.653.653 0 0 0 0 .938zm7.65 9.66 2.606 2.607 10.633-14.389-.723-.723L9.583 22.087z"/><path fill="#fd9222" style="fill:var(--color2,#fd9222)" d="m13.045.456 8.306 8.316.088-.088a.948.948 0 0 1 1.306-.015l.963.963c.337.337.348.85.092 1.207l-.004.008-.158.212 6.797 6.797a1.539 1.539 0 0 1 0 2.185L20.029 30.447a1.539 1.539 0 0 1-2.185 0l-4.907-4.907a.918.918 0 0 1-.675.35.93.93 0 0 1-.71-.272l-2.869-2.869a.948.948 0 0 1-.015-1.306l.007-.008.085-.084-8.306-8.306a1.539 1.539 0 0 1 0-2.185L10.859.455a1.539 1.539 0 0 1 2.185 0v.001zm7.263 9.357L18.37 7.876a.655.655 0 0 0-.938 0l-3.95 3.95a.664.664 0 0 0-.146.731.68.68 0 0 0 .146.217l1.93 1.93.673-.673-1.727-1.727L17.9 8.751l1.731 1.737.676-.676zm-5.601 5.597-1.935-1.935a.655.655 0 0 0-.938 0l-3.961 3.961a.653.653 0 0 0 0 .938l1.933 1.933.68-.68-1.732-1.726 3.553-3.542 1.726 1.725.675-.674zM7.528 6.834l3.95 3.95a.644.644 0 0 0 .938-.011l3.95-3.95a.643.643 0 0 0 .199-.463h.011a.674.674 0 0 0-.199-.474l-3.95-3.95a.667.667 0 0 0-.948 0l-3.95 3.961a.653.653 0 0 0 0 .938zm-5.595 5.594 3.95 3.95a.653.653 0 0 0 .938 0l3.95-3.95a.643.643 0 0 0 .199-.474h.011a.655.655 0 0 0-.199-.474l-3.95-3.95a.655.655 0 0 0-.938 0l-3.961 3.961a.653.653 0 0 0 0 .938zm7.65 9.66 2.606 2.607 10.633-14.389-.723-.723L9.583 22.087z"/></symbol><symbol id="icon-play" viewBox="0 0 32 32"><path fill="#f5f4f4" style="fill:var(--color1,#f5f4f4)" d="M10.909 24V8.727l14.545 7.636-14.545 7.636z"/><path fill="none" stroke="#fff" style="stroke:var(--color2,#fff)" stroke-width=".727" d="M31.636 16c0 8.636-7.001 15.636-15.636 15.636S.364 24.635.364 16C.364 7.364 7.365.364 16 .364S31.636 7.365 31.636 16z"/></symbol><symbol id="icon-close" viewBox="0 0 8 8"><path d="M8 .806 7.194 0 4 3.194.806 0 0 .806 3.194 4 0 7.194.806 8 4 4.806 7.194 8 8 7.194 4.806 4 8 .806Z"/></symbol><symbol id="close" viewBox="0 0 32 32"><path stroke-linejoin="round" stroke-linecap="round" stroke-width="4.571" d="M29.714 2.286 2.285 29.715M2.286 2.286l27.429 27.429"/></symbol><symbol id="card" viewBox="0 0 50 32"><path fill="#ed0006" style="fill:var(--color1,#ed0006)" d="M25.143 28.078c-2.656 2.194-6.102 3.518-9.867 3.518C6.875 31.596.065 25.003.065 16.87S6.875 2.144 15.276 2.144c3.765 0 7.21 1.324 9.867 3.518 2.656-2.194 6.102-3.518 9.866-3.518 8.401 0 15.211 6.593 15.211 14.726s-6.81 14.726-15.211 14.726c-3.765 0-7.21-1.324-9.867-3.518z"/><path fill="#f9a000" style="fill:var(--color2,#f9a000)" d="M25.143 28.078c3.271-2.701 5.344-6.72 5.344-11.208s-2.074-8.507-5.344-11.208c2.656-2.194 6.102-3.518 9.866-3.518 8.401 0 15.211 6.593 15.211 14.726s-6.81 14.726-15.211 14.726c-3.765 0-7.21-1.324-9.867-3.518z"/><path fill="#ff5e00" style="fill:var(--color3,#ff5e00)" d="M25.143 28.078c3.271-2.701 5.344-6.72 5.344-11.208s-2.074-8.507-5.344-11.208c-3.271 2.701-5.344 6.72-5.344 11.208s2.074 8.507 5.344 11.208z"/></symbol><symbol id="flag" viewBox="0 0 43 32"><path fill="gold" style="fill:var(--color4,gold)" d="M42.443.523H.324v31.344h42.119V.523z"/><path fill="#0057b7" style="fill:var(--color5,#0057b7)" d="M.324.523h42.119v15.672H.324V.523z"/></symbol><symbol id="icon-scroll" viewBox="0 0 56 32"><path d="M30.603 21.134A3.675 3.675 0 0 1 28 22.219a3.67 3.67 0 0 1-2.603-1.085L8.604 4.304a3.675 3.675 0 0 0-2.603-1.085 3.67 3.67 0 0 0-2.603 6.255l16.83 16.83a10.998 10.998 0 0 0 15.546 0l16.83-16.83a3.669 3.669 0 0 0 .791-3.975A3.675 3.675 0 0 0 51.411 3.5a3.651 3.651 0 0 0-2.82 0 3.659 3.659 0 0 0-1.193.803l-16.793 16.83z"/></symbol></defs></svg>